<mxfile host="app.diagrams.net" modified="2024-05-07T11:26:47.772Z" agent="Mozilla/5.0 (Windows NT 10.0; Win64; x64) AppleWebKit/537.36 (KHTML, like Gecko) Chrome/124.0.0.0 Safari/537.36" version="24.3.1" etag="oR93djfGWNl5m3kmW65Q" type="github">
  <diagram name="Page-1" id="xbm7QR_Xu5MX_PBTGSmj">
    <mxGraphModel>
      <root>
        <mxCell id="0" />
        <mxCell id="1" parent="0" />
      </root>
    </mxGraphModel>
  </diagram>
</mxfile>
